<?xml version="1.0" encoding="UTF-8" standalone="no"?>
<!--
  7 Wonders stage-segment definition (EDIT ME).
  The 2 red line(s) in #dividers split the building into 3 stacked
  stages, bottom-to-top. Drag the line endpoints to any position or
  angle; keep them as <line> elements inside the #dividers group.
  Then recompute the JSON:  python gen_all_illustrations.py <id>
  (the edited SVG is newer than the JSON, which re-triggers the
  segment recompute automatically - no force flag needed).
-->

<svg
   width="1536"
   height="1024"
   viewBox="0 0 1536 1024"
   version="1.1"
   id="svg1"
   sodipodi:docname="ephesos_day_segments.svg"
   inkscape:version="1.4 (e7c3feb100, 2024-10-09)"
   xmlns:inkscape="http://www.inkscape.org/namespaces/inkscape"
   xmlns:sodipodi="http://sodipodi.sourceforge.net/DTD/sodipodi-0.dtd"
   xmlns:xlink="http://www.w3.org/1999/xlink"
   xmlns="http://www.w3.org/2000/svg"
   xmlns:svg="http://www.w3.org/2000/svg">
  <defs
     id="defs1" />
  <sodipodi:namedview
     id="namedview1"
     pagecolor="#ffffff"
     bordercolor="#666666"
     borderopacity="1.0"
     inkscape:showpageshadow="2"
     inkscape:pageopacity="0.0"
     inkscape:pagecheckerboard="0"
     inkscape:deskcolor="#d1d1d1"
     inkscape:zoom="1.1490485"
     inkscape:cx="366.82524"
     inkscape:cy="423.82893"
     inkscape:window-width="1916"
     inkscape:window-height="1041"
     inkscape:window-x="0"
     inkscape:window-y="18"
     inkscape:window-maximized="1"
     inkscape:current-layer="svg1" />
  <image
     xlink:href="ephesos_day_building.png"
     x="0"
     y="0"
     width="1536"
     height="1024"
     id="image1" />
  <polygon
     id="outline-ref"
     points="470.00,215.00 496.01,244.00 578.00,279.00 608.99,271.00 617.99,293.00 602.00,325.00 611.01,333.00 601.01,354.00 604.00,478.00 639.01,497.00 642.00,524.00 673.00,527.00 675.00,554.00 725.01,560.01 740.00,597.00 781.99,625.00 780.00,670.00 545.00,712.00 512.99,704.00 335.00,729.00 194.00,729.00 184.00,715.00 90.99,710.00 77.00,700.00 82.01,686.00 51.00,657.00 72.01,650.00 73.01,602.00 99.00,577.00 99.00,555.00 128.99,553.00 131.01,523.00 155.00,521.00 160.01,493.00 184.00,489.00 194.00,468.00 185.99,306.00 290.00,271.00 298.00,247.00 328.00,266.00 442.00,242.00 469.00,216.00"
     fill="none"
     stroke="#33dd33"
     stroke-width="2"
     stroke-opacity="0.7" />
  <g
     id="dividers"
     fill="none"
     stroke="#ff2020"
     stroke-width="4"
     stroke-linecap="round">
    <path
       id="divider-1"
       d="M 0.43514263,391.5517 306.77556,315.40174 860.53055,345.86172"
       sodipodi:nodetypes="ccc" />
    <path
       id="divider-2"
       d="M -0.87028527,486.29658 295.02671,501.96171 864.88198,495.86972"
       sodipodi:nodetypes="ccc" />
  </g>
</svg>
