<?xml version="1.0" encoding="UTF-8" standalone="no"?>
<!--
  7 Wonders stage-segment definition (EDIT ME).
  The 2 red line(s) in #dividers split the building into 3 stacked
  stages, bottom-to-top. Drag the line endpoints to any position or
  angle; keep them as <line> elements inside the #dividers group.
  Then recompute the JSON:  python gen_all_illustrations.py <id>
  (the edited SVG is newer than the JSON, which re-triggers the
  segment recompute automatically - no force flag needed).
-->

<svg
   width="1536"
   height="1024"
   viewBox="0 0 1536 1024"
   version="1.1"
   id="svg1"
   sodipodi:docname="halikarnoassos_night_segments.svg"
   inkscape:version="1.4 (e7c3feb100, 2024-10-09)"
   xmlns:inkscape="http://www.inkscape.org/namespaces/inkscape"
   xmlns:sodipodi="http://sodipodi.sourceforge.net/DTD/sodipodi-0.dtd"
   xmlns:xlink="http://www.w3.org/1999/xlink"
   xmlns="http://www.w3.org/2000/svg"
   xmlns:svg="http://www.w3.org/2000/svg">
  <defs
     id="defs1" />
  <sodipodi:namedview
     id="namedview1"
     pagecolor="#ffffff"
     bordercolor="#666666"
     borderopacity="1.0"
     inkscape:showpageshadow="2"
     inkscape:pageopacity="0.0"
     inkscape:pagecheckerboard="0"
     inkscape:deskcolor="#d1d1d1"
     inkscape:zoom="0.57452426"
     inkscape:cx="571.77742"
     inkscape:cy="374.22267"
     inkscape:window-width="1916"
     inkscape:window-height="1041"
     inkscape:window-x="0"
     inkscape:window-y="18"
     inkscape:window-maximized="1"
     inkscape:current-layer="svg1" />
  <image
     xlink:href="halikarnoassos_night_building.png"
     x="0"
     y="0"
     width="1536"
     height="1024"
     id="image1" />
  <polygon
     id="outline-ref"
     points="445.99,24.00 471.00,46.00 490.00,31.00 502.00,46.00 524.01,45.00 533.01,105.00 552.01,137.00 615.00,196.00 653.00,191.00 643.00,330.00 656.99,349.00 654.00,423.00 689.00,435.00 685.99,557.00 700.00,583.00 725.01,588.00 723.99,665.00 770.00,705.00 771.99,768.00 815.00,831.00 754.01,842.00 708.00,819.00 714.99,804.00 666.99,807.00 650.00,790.00 166.99,796.00 138.99,783.99 127.00,793.00 113.00,778.00 73.01,769.00 195.99,764.00 205.99,746.00 208.01,675.00 232.00,675.00 236.01,663.00 234.99,585.00 252.00,587.00 269.00,553.00 268.00,452.00 291.99,431.00 287.00,362.00 307.00,335.00 308.00,274.00 291.99,242.00 298.00,212.00 327.00,210.00 392.00,147.00 444.99,25.00"
     fill="none"
     stroke="#33dd33"
     stroke-width="2"
     stroke-opacity="0.7" />
  <g
     id="dividers"
     fill="none"
     stroke="#ff2020"
     stroke-width="4"
     stroke-linecap="round">
    <path
       id="divider-1"
       d="M 4.3514268,463.32964 396.95566,330.32156 887.8837,373.25511"
       sodipodi:nodetypes="ccc" />
    <path
       id="divider-2"
       d="M 9.2745033,619.95839 380.30769,581.03234 894.87691,594.5708"
       sodipodi:nodetypes="ccc" />
  </g>
</svg>
